<svg width="1824" height="779" xmlns="http://www.w3.org/2000/svg"><g><path d="M-78.22622758336365,-77.69706116057932L-117.0844566822052,178.18379734642804L-57.875214871019125,29.614731101319194Z" fill="#ffffff" stroke="#ffffff"></path><path d="M-78.22622758336365,-77.69706116057932L-57.875214871019125,29.614731101319194L125.92632802203298,-101.14424840547144Z" fill="#fffbfd" stroke="#fffbfd"></path><path d="M-78.22622758336365,-77.69706116057932L125.92632802203298,-101.14424840547144L216.8341384269297,-132.0865456201136Z" fill="#fbf8fb" stroke="#fbf8fb"></path><path d="M125.92632802203298,-101.14424840547144L-57.875214871019125,29.614731101319194L71.68567643500865,85.07620389573276Z" fill="#fdf9fc" stroke="#fdf9fc"></path><path d="M125.92632802203298,-101.14424840547144L71.68567643500865,85.07620389573276L251.465016156435,75.47501740045846Z" fill="#f8f5fa" stroke="#f8f5fa"></path><path d="M125.92632802203298,-101.14424840547144L251.465016156435,75.47501740045846L216.8341384269297,-132.0865456201136Z" fill="#f6f3f9" stroke="#f6f3f9"></path><path d="M216.8341384269297,-132.0865456201136L251.465016156435,75.47501740045846L402.50326693989336,-82.0759226102382Z" fill="#f0eef6" stroke="#f0eef6"></path><path d="M216.8341384269297,-132.0865456201136L402.50326693989336,-82.0759226102382L674.501165561378,-67.28905180469155Z" fill="#e5e7f2" stroke="#e5e7f2"></path><path d="M216.8341384269297,-132.0865456201136L674.501165561378,-67.28905180469155L929.2395980469882,-88.32039766944945Z" fill="#d3deed" stroke="#d3deed"></path><path d="M216.8341384269297,-132.0865456201136L929.2395980469882,-88.32039766944945L1709.8880430590361,-108.34318717941642Z" fill="#a4cce2" stroke="#a4cce2"></path><path d="M216.8341384269297,-132.0865456201136L1709.8880430590361,-108.34318717941642L1990.4940483625978,-108.6949437763542Z" fill="#82b3d0" stroke="#82b3d0"></path><path d="M402.50326693989336,-82.0759226102382L251.465016156435,75.47501740045846L424.95314293541014,43.08463350869715Z" fill="#ebebf4" stroke="#ebebf4"></path><path d="M402.50326693989336,-82.0759226102382L424.95314293541014,43.08463350869715L470.89436765760183,-56.165388794615865Z" fill="#e5e7f2" stroke="#e5e7f2"></path><path d="M402.50326693989336,-82.0759226102382L470.89436765760183,-56.165388794615865L674.501165561378,-67.28905180469155Z" fill="#dce3f0" stroke="#dce3f0"></path><path d="M470.89436765760183,-56.165388794615865L424.95314293541014,43.08463350869715L534.2293479200453,115.4966639354825Z" fill="#e0e5f1" stroke="#e0e5f1"></path><path d="M470.89436765760183,-56.165388794615865L534.2293479200453,115.4966639354825L630.5011653900146,72.29032142087817Z" fill="#d9e1ef" stroke="#d9e1ef"></path><path d="M470.89436765760183,-56.165388794615865L630.5011653900146,72.29032142087817L674.501165561378,-67.28905180469155Z" fill="#d4dfee" stroke="#d4dfee"></path><path d="M674.501165561378,-67.28905180469155L630.5011653900146,72.29032142087817L870.2054684981704,43.36619119159877Z" fill="#c4d8ea" stroke="#c4d8ea"></path><path d="M674.501165561378,-67.28905180469155L870.2054684981704,43.36619119159877L856.8586299754679,-25.37609539926052Z" fill="#bbd5e8" stroke="#bbd5e8"></path><path d="M674.501165561378,-67.28905180469155L856.8586299754679,-25.37609539926052L929.2395980469882,-88.32039766944945Z" fill="#b8d4e7" stroke="#b8d4e7"></path><path d="M856.8586299754679,-25.37609539926052L870.2054684981704,43.36619119159877L975.5695503763855,48.61510505899787Z" fill="#accfe4" stroke="#accfe4"></path><path d="M856.8586299754679,-25.37609539926052L975.5695503763855,48.61510505899787L929.2395980469882,-88.32039766944945Z" fill="#a9cde3" stroke="#a9cde3"></path><path d="M929.2395980469882,-88.32039766944945L975.5695503763855,48.61510505899787L1075.7479874510318,-71.92164609208703Z" fill="#9ec9e0" stroke="#9ec9e0"></path><path d="M929.2395980469882,-88.32039766944945L1075.7479874510318,-71.92164609208703L1709.8880430590361,-108.34318717941642Z" fill="#82b7d6" stroke="#82b7d6"></path><path d="M1075.7479874510318,-71.92164609208703L975.5695503763855,48.61510505899787L1159.6833580825478,108.68382417596877Z" fill="#94c3dd" stroke="#94c3dd"></path><path d="M1075.7479874510318,-71.92164609208703L1159.6833580825478,108.68382417596877L1242.3444618098438,-36.22091464698315Z" fill="#89bcda" stroke="#89bcda"></path><path d="M1075.7479874510318,-71.92164609208703L1242.3444618098438,-36.22091464698315L1424.409993533045,-54.67006520368159Z" fill="#82b6d5" stroke="#82b6d5"></path><path d="M1075.7479874510318,-71.92164609208703L1424.409993533045,-54.67006520368159L1531.8530863244087,-77.23333368077874Z" fill="#82b1cd" stroke="#82b1cd"></path><path d="M1075.7479874510318,-71.92164609208703L1531.8530863244087,-77.23333368077874L1709.8880430590361,-108.34318717941642Z" fill="#82abc4" stroke="#82abc4"></path><path d="M1242.3444618098438,-36.22091464698315L1159.6833580825478,108.68382417596877L1297.1709911897779,101.02579367347062Z" fill="#82b7d6" stroke="#82b7d6"></path><path d="M1242.3444618098438,-36.22091464698315L1297.1709911897779,101.02579367347062L1424.409993533045,-54.67006520368159Z" fill="#82b2cf" stroke="#82b2cf"></path><path d="M1424.409993533045,-54.67006520368159L1297.1709911897779,101.02579367347062L1438.7214274518192,126.24110044911504Z" fill="#82aec9" stroke="#82aec9"></path><path d="M1424.409993533045,-54.67006520368159L1438.7214274518192,126.24110044911504L1548.3571478258818,86.11196455545723Z" fill="#81a8bf" stroke="#81a8bf"></path><path d="M1424.409993533045,-54.67006520368159L1548.3571478258818,86.11196455545723L1531.8530863244087,-77.23333368077874Z" fill="#81a6bb" stroke="#81a6bb"></path><path d="M1531.8530863244087,-77.23333368077874L1548.3571478258818,86.11196455545723L1709.8880430590361,-108.34318717941642Z" fill="#819eaf" stroke="#819eaf"></path><path d="M1709.8880430590361,-108.34318717941642L1548.3571478258818,86.11196455545723L1722.676734002307,115.53116203285754Z" fill="#8198a7" stroke="#8198a7"></path><path d="M1709.8880430590361,-108.34318717941642L1722.676734002307,115.53116203285754L1862.997891716659,20.18845595419407Z" fill="#809099" stroke="#809099"></path><path d="M1709.8880430590361,-108.34318717941642L1862.997891716659,20.18845595419407L1841.6338487248868,-68.41537727974355Z" fill="#808c94" stroke="#808c94"></path><path d="M1709.8880430590361,-108.34318717941642L1841.6338487248868,-68.41537727974355L1990.4940483625978,-108.6949437763542Z" fill="#80898e" stroke="#80898e"></path><path d="M1841.6338487248868,-68.41537727974355L1862.997891716659,20.18845595419407L1990.4940483625978,-108.6949437763542Z" fill="#808588" stroke="#808588"></path><path d="M1990.4940483625978,-108.6949437763542L1862.997891716659,20.18845595419407L1967.3409273661673,56.87319212593138Z" fill="#808182" stroke="#808182"></path><path d="M1990.4940483625978,-108.6949437763542L1967.3409273661673,56.87319212593138L2084.7801091801375,347.4206545483321Z" fill="#7f7f80" stroke="#7f7f80"></path><path d="M-57.875214871019125,29.614731101319194L-117.0844566822052,178.18379734642804L71.68567643500865,85.07620389573276Z" fill="#fffcfe" stroke="#fffcfe"></path><path d="M71.68567643500865,85.07620389573276L-117.0844566822052,178.18379734642804L83.80511697381735,178.88660972937942Z" fill="#fcf9fd" stroke="#fcf9fd"></path><path d="M71.68567643500865,85.07620389573276L83.80511697381735,178.88660972937942L251.465016156435,75.47501740045846Z" fill="#f8f5fa" stroke="#f8f5fa"></path><path d="M251.465016156435,75.47501740045846L83.80511697381735,178.88660972937942L222.73737757466733,273.71799803338945Z" fill="#f2f0f9" stroke="#f2f0f9"></path><path d="M251.465016156435,75.47501740045846L222.73737757466733,273.71799803338945L317.5879478920251,192.6864921581Z" fill="#ececf7" stroke="#ececf7"></path><path d="M251.465016156435,75.47501740045846L317.5879478920251,192.6864921581L424.95314293541014,43.08463350869715Z" fill="#ececf5" stroke="#ececf5"></path><path d="M424.95314293541014,43.08463350869715L317.5879478920251,192.6864921581L534.2293479200453,115.4966639354825Z" fill="#e5e6f2" stroke="#e5e6f2"></path><path d="M534.2293479200453,115.4966639354825L317.5879478920251,192.6864921581L563.7203512340784,233.8213117327541Z" fill="#dbe1f1" stroke="#dbe1f1"></path><path d="M534.2293479200453,115.4966639354825L563.7203512340784,233.8213117327541L630.5011653900146,72.29032142087817Z" fill="#d4deee" stroke="#d4deee"></path><path d="M630.5011653900146,72.29032142087817L563.7203512340784,233.8213117327541L713.8648318313062,248.54074764065444Z" fill="#c8d8ec" stroke="#c8d8ec"></path><path d="M630.5011653900146,72.29032142087817L713.8648318313062,248.54074764065444L870.2054684981704,43.36619119159877Z" fill="#c1d7e9" stroke="#c1d7e9"></path><path d="M870.2054684981704,43.36619119159877L713.8648318313062,248.54074764065444L799.6992364246398,273.73474608175457Z" fill="#b4d0e8" stroke="#b4d0e8"></path><path d="M870.2054684981704,43.36619119159877L799.6992364246398,273.73474608175457L972.2947501670569,243.11937312595546Z" fill="#a8cbe5" stroke="#a8cbe5"></path><path d="M870.2054684981704,43.36619119159877L972.2947501670569,243.11937312595546L975.5695503763855,48.61510505899787Z" fill="#a5cbe2" stroke="#a5cbe2"></path><path d="M975.5695503763855,48.61510505899787L972.2947501670569,243.11937312595546L1136.4179410412908,182.7877733297646Z" fill="#96c4df" stroke="#96c4df"></path><path d="M975.5695503763855,48.61510505899787L1136.4179410412908,182.7877733297646L1159.6833580825478,108.68382417596877Z" fill="#90c1dd" stroke="#90c1dd"></path><path d="M1159.6833580825478,108.68382417596877L1136.4179410412908,182.7877733297646L1294.3027111049742,239.82652195729315Z" fill="#80b6d9" stroke="#80b6d9"></path><path d="M1159.6833580825478,108.68382417596877L1294.3027111049742,239.82652195729315L1297.1709911897779,101.02579367347062Z" fill="#80b4d5" stroke="#80b4d5"></path><path d="M1297.1709911897779,101.02579367347062L1294.3027111049742,239.82652195729315L1403.5185138043016,226.490686442703Z" fill="#7aacce" stroke="#7aacce"></path><path d="M1297.1709911897779,101.02579367347062L1403.5185138043016,226.490686442703L1438.7214274518192,126.24110044911504Z" fill="#7fadca" stroke="#7fadca"></path><path d="M1438.7214274518192,126.24110044911504L1403.5185138043016,226.490686442703L1581.2533927056938,264.16040564887226Z" fill="#74a1bf" stroke="#74a1bf"></path><path d="M1438.7214274518192,126.24110044911504L1581.2533927056938,264.16040564887226L1548.3571478258818,86.11196455545723Z" fill="#7ea2b9" stroke="#7ea2b9"></path><path d="M1548.3571478258818,86.11196455545723L1581.2533927056938,264.16040564887226L1722.676734002307,115.53116203285754Z" fill="#7e9aac" stroke="#7e9aac"></path><path d="M1722.676734002307,115.53116203285754L1581.2533927056938,264.16040564887226L1734.7017866000533,277.7013312187046Z" fill="#6f8da4" stroke="#6f8da4"></path><path d="M1722.676734002307,115.53116203285754L1734.7017866000533,277.7013312187046L1873.949367357418,251.03599039837718Z" fill="#708697" stroke="#708697"></path><path d="M1722.676734002307,115.53116203285754L1873.949367357418,251.03599039837718L1862.997891716659,20.18845595419407Z" fill="#7e8a92" stroke="#7e8a92"></path><path d="M1862.997891716659,20.18845595419407L1873.949367357418,251.03599039837718L1967.3409273661673,56.87319212593138Z" fill="#7f8387" stroke="#7f8387"></path><path d="M1967.3409273661673,56.87319212593138L1873.949367357418,251.03599039837718L1992.9997181519866,248.45243526622653Z" fill="#797c81" stroke="#797c81"></path><path d="M1967.3409273661673,56.87319212593138L1992.9997181519866,248.45243526622653L2084.7801091801375,347.4206545483321Z" fill="#6f7780" stroke="#6f7780"></path><path d="M-117.0844566822052,178.18379734642804L-118.98634565994143,511.79144815541804L-46.08508346602321,387.1626655664295Z" fill="#bfe2fa" stroke="#bfe2fa"></path><path d="M-117.0844566822052,178.18379734642804L-46.08508346602321,387.1626655664295L83.80511697381735,178.88660972937942Z" fill="#e6effe" stroke="#e6effe"></path><path d="M83.80511697381735,178.88660972937942L-46.08508346602321,387.1626655664295L176.00475325249135,315.87967864237726Z" fill="#d3e4fa" stroke="#d3e4fa"></path><path d="M83.80511697381735,178.88660972937942L176.00475325249135,315.87967864237726L222.73737757466733,273.71799803338945Z" fill="#dce6fa" stroke="#dce6fa"></path><path d="M222.73737757466733,273.71799803338945L176.00475325249135,315.87967864237726L418.3239255286753,371.9262056797743Z" fill="#bfd8f4" stroke="#bfd8f4"></path><path d="M222.73737757466733,273.71799803338945L418.3239255286753,371.9262056797743L317.5879478920251,192.6864921581Z" fill="#cadbf4" stroke="#cadbf4"></path><path d="M317.5879478920251,192.6864921581L418.3239255286753,371.9262056797743L563.7203512340784,233.8213117327541Z" fill="#c6d7f1" stroke="#c6d7f1"></path><path d="M563.7203512340784,233.8213117327541L418.3239255286753,371.9262056797743L536.3785390276462,344.24294653348625Z" fill="#adccee" stroke="#adccee"></path><path d="M563.7203512340784,233.8213117327541L536.3785390276462,344.24294653348625L713.8648318313062,248.54074764065444Z" fill="#b1cded" stroke="#b1cded"></path><path d="M713.8648318313062,248.54074764065444L536.3785390276462,344.24294653348625L732.9331073351204,348.09776198118925Z" fill="#9dc5e9" stroke="#9dc5e9"></path><path d="M713.8648318313062,248.54074764065444L732.9331073351204,348.09776198118925L799.6992364246398,273.73474608175457Z" fill="#9ac4e8" stroke="#9ac4e8"></path><path d="M799.6992364246398,273.73474608175457L732.9331073351204,348.09776198118925L766.8190181348473,428.879534304142Z" fill="#83bbe4" stroke="#83bbe4"></path><path d="M799.6992364246398,273.73474608175457L766.8190181348473,428.879534304142L1022.529154708609,338.4409628994763Z" fill="#77b6e1" stroke="#77b6e1"></path><path d="M799.6992364246398,273.73474608175457L1022.529154708609,338.4409628994763L972.2947501670569,243.11937312595546Z" fill="#82bae2" stroke="#82bae2"></path><path d="M972.2947501670569,243.11937312595546L1022.529154708609,338.4409628994763L1121.8782270513475,334.1760493721813Z" fill="#6bb0dd" stroke="#6bb0dd"></path><path d="M972.2947501670569,243.11937312595546L1121.8782270513475,334.1760493721813L1136.4179410412908,182.7877733297646Z" fill="#79b5dd" stroke="#79b5dd"></path><path d="M1136.4179410412908,182.7877733297646L1121.8782270513475,334.1760493721813L1294.3027111049742,239.82652195729315Z" fill="#6cacd9" stroke="#6cacd9"></path><path d="M1294.3027111049742,239.82652195729315L1121.8782270513475,334.1760493721813L1332.065261900425,325.7899692468345Z" fill="#58a1d3" stroke="#58a1d3"></path><path d="M1294.3027111049742,239.82652195729315L1332.065261900425,325.7899692468345L1403.5185138043016,226.490686442703Z" fill="#64a1cd" stroke="#64a1cd"></path><path d="M1403.5185138043016,226.490686442703L1332.065261900425,325.7899692468345L1377.258467702195,371.6337234713137Z" fill="#559ac8" stroke="#559ac8"></path><path d="M1403.5185138043016,226.490686442703L1377.258467702195,371.6337234713137L1581.2533927056938,264.16040564887226Z" fill="#5c97c0" stroke="#5c97c0"></path><path d="M1581.2533927056938,264.16040564887226L1377.258467702195,371.6337234713137L1607.5699607469141,323.5730389226228Z" fill="#508db6" stroke="#508db6"></path><path d="M1581.2533927056938,264.16040564887226L1607.5699607469141,323.5730389226228L1734.7017866000533,277.7013312187046Z" fill="#5a87a8" stroke="#5a87a8"></path><path d="M1734.7017866000533,277.7013312187046L1607.5699607469141,323.5730389226228L1745.2049318701029,322.4764265399426Z" fill="#5380a0" stroke="#5380a0"></path><path d="M1734.7017866000533,277.7013312187046L1745.2049318701029,322.4764265399426L1873.949367357418,251.03599039837718Z" fill="#5b7c95" stroke="#5b7c95"></path><path d="M1873.949367357418,251.03599039837718L1745.2049318701029,322.4764265399426L1889.8976385779679,318.3886094111949Z" fill="#56768e" stroke="#56768e"></path><path d="M1873.949367357418,251.03599039837718L1889.8976385779679,318.3886094111949L1992.9997181519866,248.45243526622653Z" fill="#5f7284" stroke="#5f7284"></path><path d="M1992.9997181519866,248.45243526622653L1889.8976385779679,318.3886094111949L2084.7801091801375,347.4206545483321Z" fill="#546a7e" stroke="#546a7e"></path><path d="M-46.08508346602321,387.1626655664295L-118.98634565994143,511.79144815541804L27.23203780129552,543.2474837824702Z" fill="#98c9ec" stroke="#98c9ec"></path><path d="M-46.08508346602321,387.1626655664295L27.23203780129552,543.2474837824702L93.55578412301838,433.77148828469217Z" fill="#9bcced" stroke="#9bcced"></path><path d="M-46.08508346602321,387.1626655664295L93.55578412301838,433.77148828469217L176.00475325249135,315.87967864237726Z" fill="#b3d8f4" stroke="#b3d8f4"></path><path d="M93.55578412301838,433.77148828469217L27.23203780129552,543.2474837824702L165.97255105152726,493.47318953834474Z" fill="#92c1e8" stroke="#92c1e8"></path><path d="M93.55578412301838,433.77148828469217L165.97255105152726,493.47318953834474L176.00475325249135,315.87967864237726Z" fill="#a1cfef" stroke="#a1cfef"></path><path d="M176.00475325249135,315.87967864237726L165.97255105152726,493.47318953834474L418.3239255286753,371.9262056797743Z" fill="#a3cdee" stroke="#a3cdee"></path><path d="M418.3239255286753,371.9262056797743L165.97255105152726,493.47318953834474L400.5816170666367,553.244981020689Z" fill="#87bae4" stroke="#87bae4"></path><path d="M418.3239255286753,371.9262056797743L400.5816170666367,553.244981020689L531.8128801882267,576.5718347579241Z" fill="#78addd" stroke="#78addd"></path><path d="M418.3239255286753,371.9262056797743L531.8128801882267,576.5718347579241L536.3785390276462,344.24294653348625Z" fill="#80bbe3" stroke="#80bbe3"></path><path d="M536.3785390276462,344.24294653348625L531.8128801882267,576.5718347579241L702.4845160078257,573.6313545238227Z" fill="#6aa7da" stroke="#6aa7da"></path><path d="M536.3785390276462,344.24294653348625L702.4845160078257,573.6313545238227L766.8190181348473,428.879534304142Z" fill="#69aedc" stroke="#69aedc"></path><path d="M536.3785390276462,344.24294653348625L766.8190181348473,428.879534304142L732.9331073351204,348.09776198118925Z" fill="#84bbe4" stroke="#84bbe4"></path><path d="M766.8190181348473,428.879534304142L702.4845160078257,573.6313545238227L883.316482482478,553.134244820103Z" fill="#4f99d2" stroke="#4f99d2"></path><path d="M766.8190181348473,428.879534304142L883.316482482478,553.134244820103L1022.529154708609,338.4409628994763Z" fill="#4da4d6" stroke="#4da4d6"></path><path d="M1022.529154708609,338.4409628994763L883.316482482478,553.134244820103L1023.4080904629081,581.5161979850382Z" fill="#3794ce" stroke="#3794ce"></path><path d="M1022.529154708609,338.4409628994763L1023.4080904629081,581.5161979850382L1143.0108454730362,498.85793963447213Z" fill="#2f91cc" stroke="#2f91cc"></path><path d="M1022.529154708609,338.4409628994763L1143.0108454730362,498.85793963447213L1121.8782270513475,334.1760493721813Z" fill="#439fd4" stroke="#439fd4"></path><path d="M1121.8782270513475,334.1760493721813L1143.0108454730362,498.85793963447213L1332.065261900425,325.7899692468345Z" fill="#3998d0" stroke="#3998d0"></path><path d="M1332.065261900425,325.7899692468345L1143.0108454730362,498.85793963447213L1291.1164812650532,525.887786373496Z" fill="#2088c5" stroke="#2088c5"></path><path d="M1332.065261900425,325.7899692468345L1291.1164812650532,525.887786373496L1377.258467702195,371.6337234713137Z" fill="#2d8cc3" stroke="#2d8cc3"></path><path d="M1377.258467702195,371.6337234713137L1291.1164812650532,525.887786373496L1440.3115421254188,484.9841097649187Z" fill="#1e7fba" stroke="#1e7fba"></path><path d="M1377.258467702195,371.6337234713137L1440.3115421254188,484.9841097649187L1607.5699607469141,323.5730389226228Z" fill="#3385b6" stroke="#3385b6"></path><path d="M1607.5699607469141,323.5730389226228L1440.3115421254188,484.9841097649187L1632.5632028002292,576.8248836882412Z" fill="#1d71a4" stroke="#1d71a4"></path><path d="M1607.5699607469141,323.5730389226228L1632.5632028002292,576.8248836882412L1703.9586344920099,526.9340122304857Z" fill="#1a6797" stroke="#1a6797"></path><path d="M1607.5699607469141,323.5730389226228L1703.9586344920099,526.9340122304857L1745.2049318701029,322.4764265399426Z" fill="#33749b" stroke="#33749b"></path><path d="M1745.2049318701029,322.4764265399426L1703.9586344920099,526.9340122304857L1818.4212631266564,583.4245681576431Z" fill="#195d88" stroke="#195d88"></path><path d="M1745.2049318701029,322.4764265399426L1818.4212631266564,583.4245681576431L1889.8976385779679,318.3886094111949Z" fill="#2b6688" stroke="#2b6688"></path><path d="M1889.8976385779679,318.3886094111949L1818.4212631266564,583.4245681576431L2077.872297735885,562.6681268401444Z" fill="#174c71" stroke="#174c71"></path><path d="M1889.8976385779679,318.3886094111949L2077.872297735885,562.6681268401444L2084.7801091801375,347.4206545483321Z" fill="#2a5a75" stroke="#2a5a75"></path><path d="M-118.98634565994143,511.79144815541804L-109.22908505424857,936.1024627927691L-81.27205188386142,672.1707580145448Z" fill="#919daf" stroke="#919daf"></path><path d="M-118.98634565994143,511.79144815541804L-81.27205188386142,672.1707580145448L27.23203780129552,543.2474837824702Z" fill="#91b8db" stroke="#91b8db"></path><path d="M27.23203780129552,543.2474837824702L-81.27205188386142,672.1707580145448L82.57985548116267,697.1720644086599Z" fill="#91a9c6" stroke="#91a9c6"></path><path d="M27.23203780129552,543.2474837824702L82.57985548116267,697.1720644086599L165.97255105152726,493.47318953834474Z" fill="#8db2d7" stroke="#8db2d7"></path><path d="M165.97255105152726,493.47318953834474L82.57985548116267,697.1720644086599L243.74763158150017,649.7426743246615Z" fill="#8aa9cb" stroke="#8aa9cb"></path><path d="M165.97255105152726,493.47318953834474L243.74763158150017,649.7426743246615L400.5816170666367,553.244981020689Z" fill="#83acd5" stroke="#83acd5"></path><path d="M400.5816170666367,553.244981020689L243.74763158150017,649.7426743246615L385.4098938591778,698.3192197792232Z" fill="#7e9bbf" stroke="#7e9bbf"></path><path d="M400.5816170666367,553.244981020689L385.4098938591778,698.3192197792232L523.2423178944737,617.724412176758Z" fill="#7799c0" stroke="#7799c0"></path><path d="M400.5816170666367,553.244981020689L523.2423178944737,617.724412176758L531.8128801882267,576.5718347579241Z" fill="#719ecb" stroke="#719ecb"></path><path d="M531.8128801882267,576.5718347579241L523.2423178944737,617.724412176758L702.4845160078257,573.6313545238227Z" fill="#6798c6" stroke="#6798c6"></path><path d="M702.4845160078257,573.6313545238227L523.2423178944737,617.724412176758L704.5689825899899,729.4676806312054Z" fill="#608bb4" stroke="#608bb4"></path><path d="M702.4845160078257,573.6313545238227L704.5689825899899,729.4676806312054L837.2911066375673,642.8003384359181Z" fill="#5383ae" stroke="#5383ae"></path><path d="M702.4845160078257,573.6313545238227L837.2911066375673,642.8003384359181L883.316482482478,553.134244820103Z" fill="#4c8dc0" stroke="#4c8dc0"></path><path d="M883.316482482478,553.134244820103L837.2911066375673,642.8003384359181L947.6043295115232,711.2540800496936Z" fill="#407eae" stroke="#407eae"></path><path d="M883.316482482478,553.134244820103L947.6043295115232,711.2540800496936L1023.4080904629081,581.5161979850382Z" fill="#3680b3" stroke="#3680b3"></path><path d="M1023.4080904629081,581.5161979850382L947.6043295115232,711.2540800496936L1066.104843551293,657.5320182368159Z" fill="#2d73a4" stroke="#2d73a4"></path><path d="M1023.4080904629081,581.5161979850382L1066.104843551293,657.5320182368159L1143.0108454730362,498.85793963447213Z" fill="#257db8" stroke="#257db8"></path><path d="M1143.0108454730362,498.85793963447213L1066.104843551293,657.5320182368159L1277.7621914818883,622.8239952027798Z" fill="#1b74b1" stroke="#1b74b1"></path><path d="M1143.0108454730362,498.85793963447213L1277.7621914818883,622.8239952027798L1291.1164812650532,525.887786373496Z" fill="#1475b8" stroke="#1475b8"></path><path d="M1291.1164812650532,525.887786373496L1277.7621914818883,622.8239952027798L1398.7600286118686,698.225534465164Z" fill="#1465a0" stroke="#1465a0"></path><path d="M1291.1164812650532,525.887786373496L1398.7600286118686,698.225534465164L1440.3115421254188,484.9841097649187Z" fill="#146ba7" stroke="#146ba7"></path><path d="M1440.3115421254188,484.9841097649187L1398.7600286118686,698.225534465164L1536.6219038609415,680.4515571333468Z" fill="#145c90" stroke="#145c90"></path><path d="M1440.3115421254188,484.9841097649187L1536.6219038609415,680.4515571333468L1632.5632028002292,576.8248836882412Z" fill="#135d91" stroke="#135d91"></path><path d="M1632.5632028002292,576.8248836882412L1536.6219038609415,680.4515571333468L1738.061310108751,675.3131985571235Z" fill="#134870" stroke="#134870"></path><path d="M1632.5632028002292,576.8248836882412L1738.061310108751,675.3131985571235L1703.9586344920099,526.9340122304857Z" fill="#124e7a" stroke="#124e7a"></path><path d="M1703.9586344920099,526.9340122304857L1738.061310108751,675.3131985571235L1818.4212631266564,583.4245681576431Z" fill="#124871" stroke="#124871"></path><path d="M1818.4212631266564,583.4245681576431L1738.061310108751,675.3131985571235L1856.8377555068582,699.9034267198294Z" fill="#123757" stroke="#123757"></path><path d="M1818.4212631266564,583.4245681576431L1856.8377555068582,699.9034267198294L2037.1924885176122,627.7780521009117Z" fill="#123350" stroke="#123350"></path><path d="M1818.4212631266564,583.4245681576431L2037.1924885176122,627.7780521009117L2077.872297735885,562.6681268401444Z" fill="#123858" stroke="#123858"></path><path d="M2077.872297735885,562.6681268401444L2037.1924885176122,627.7780521009117L2019.6657900698483,768.8506190478802Z" fill="#122b43" stroke="#122b43"></path><path d="M2077.872297735885,562.6681268401444L2019.6657900698483,768.8506190478802L2062.1715254802257,1004.279753677547Z" fill="#120d15" stroke="#120d15"></path><path d="M-81.27205188386142,672.1707580145448L-109.22908505424857,936.1024627927691L-38.929658560082316,774.6906563825905Z" fill="#91888f" stroke="#91888f"></path><path d="M-81.27205188386142,672.1707580145448L-38.929658560082316,774.6906563825905L82.57985548116267,697.1720644086599Z" fill="#9198ab" stroke="#9198ab"></path><path d="M82.57985548116267,697.1720644086599L-38.929658560082316,774.6906563825905L106.08672425150871,778.8067671004683Z" fill="#8f8d9c" stroke="#8f8d9c"></path><path d="M82.57985548116267,697.1720644086599L106.08672425150871,778.8067671004683L230.2189088612795,786.6079085692763Z" fill="#8b8999" stroke="#8b8999"></path><path d="M82.57985548116267,697.1720644086599L230.2189088612795,786.6079085692763L243.74763158150017,649.7426743246615Z" fill="#8991a7" stroke="#8991a7"></path><path d="M243.74763158150017,649.7426743246615L230.2189088612795,786.6079085692763L385.4098938591778,698.3192197792232Z" fill="#828ca4" stroke="#828ca4"></path><path d="M385.4098938591778,698.3192197792232L230.2189088612795,786.6079085692763L347.75991786271334,823.5313672665507Z" fill="#807c8e" stroke="#807c8e"></path><path d="M385.4098938591778,698.3192197792232L347.75991786271334,823.5313672665507L546.6679170168936,880.0368043687195Z" fill="#786f80" stroke="#786f80"></path><path d="M385.4098938591778,698.3192197792232L546.6679170168936,880.0368043687195L523.2423178944737,617.724412176758Z" fill="#717c97" stroke="#717c97"></path><path d="M523.2423178944737,617.724412176758L546.6679170168936,880.0368043687195L650.794637594372,850.916414251551Z" fill="#686c82" stroke="#686c82"></path><path d="M523.2423178944737,617.724412176758L650.794637594372,850.916414251551L704.5689825899899,729.4676806312054Z" fill="#637593" stroke="#637593"></path><path d="M704.5689825899899,729.4676806312054L650.794637594372,850.916414251551L858.2575104385614,882.2710690833628Z" fill="#555b70" stroke="#555b70"></path><path d="M704.5689825899899,729.4676806312054L858.2575104385614,882.2710690833628L837.2911066375673,642.8003384359181Z" fill="#4d6887" stroke="#4d6887"></path><path d="M837.2911066375673,642.8003384359181L858.2575104385614,882.2710690833628L947.6043295115232,711.2540800496936Z" fill="#416586" stroke="#416586"></path><path d="M947.6043295115232,711.2540800496936L858.2575104385614,882.2710690833628L973.8374272640795,851.3197677209973Z" fill="#3a526b" stroke="#3a526b"></path><path d="M947.6043295115232,711.2540800496936L973.8374272640795,851.3197677209973L1066.104843551293,657.5320182368159Z" fill="#2f5f84" stroke="#2f5f84"></path><path d="M1066.104843551293,657.5320182368159L973.8374272640795,851.3197677209973L1119.0922036394477,877.3198851943016Z" fill="#284e6e" stroke="#284e6e"></path><path d="M1066.104843551293,657.5320182368159L1119.0922036394477,877.3198851943016L1270.1546812523156,850.7086239103228Z" fill="#1c466a" stroke="#1c466a"></path><path d="M1066.104843551293,657.5320182368159L1270.1546812523156,850.7086239103228L1277.7621914818883,622.8239952027798Z" fill="#165687" stroke="#165687"></path><path d="M1277.7621914818883,622.8239952027798L1270.1546812523156,850.7086239103228L1398.7600286118686,698.225534465164Z" fill="#144c79" stroke="#144c79"></path><path d="M1398.7600286118686,698.225534465164L1270.1546812523156,850.7086239103228L1402.804822800681,860.5691729485989Z" fill="#143858" stroke="#143858"></path><path d="M1398.7600286118686,698.225534465164L1402.804822800681,860.5691729485989L1536.6219038609415,680.4515571333468Z" fill="#143f64" stroke="#143f64"></path><path d="M1536.6219038609415,680.4515571333468L1402.804822800681,860.5691729485989L1603.9415055233985,828.9649996440858Z" fill="#132f4b" stroke="#132f4b"></path><path d="M1536.6219038609415,680.4515571333468L1603.9415055233985,828.9649996440858L1738.061310108751,675.3131985571235Z" fill="#133453" stroke="#133453"></path><path d="M1738.061310108751,675.3131985571235L1603.9415055233985,828.9649996440858L1708.234902760014,853.4917830303311Z" fill="#122237" stroke="#122237"></path><path d="M1738.061310108751,675.3131985571235L1708.234902760014,853.4917830303311L1826.9523344468325,775.6693821866065Z" fill="#122033" stroke="#122033"></path><path d="M1738.061310108751,675.3131985571235L1826.9523344468325,775.6693821866065L1856.8377555068582,699.9034267198294Z" fill="#12283f" stroke="#12283f"></path><path d="M1856.8377555068582,699.9034267198294L1826.9523344468325,775.6693821866065L2019.6657900698483,768.8506190478802Z" fill="#121928" stroke="#121928"></path><path d="M1856.8377555068582,699.9034267198294L2019.6657900698483,768.8506190478802L2037.1924885176122,627.7780521009117Z" fill="#122032" stroke="#122032"></path><path d="M-38.929658560082316,774.6906563825905L-109.22908505424857,936.1024627927691L42.11519993841648,1019.7179316077381Z" fill="#917d7f" stroke="#917d7f"></path><path d="M-38.929658560082316,774.6906563825905L42.11519993841648,1019.7179316077381L106.08672425150871,778.8067671004683Z" fill="#907a7d" stroke="#907a7d"></path><path d="M106.08672425150871,778.8067671004683L42.11519993841648,1019.7179316077381L251.43593966960907,929.791373340413Z" fill="#8b767b" stroke="#8b767b"></path><path d="M106.08672425150871,778.8067671004683L251.43593966960907,929.791373340413L230.2189088612795,786.6079085692763Z" fill="#88747b" stroke="#88747b"></path><path d="M230.2189088612795,786.6079085692763L251.43593966960907,929.791373340413L347.75991786271334,823.5313672665507Z" fill="#837077" stroke="#837077"></path><path d="M347.75991786271334,823.5313672665507L251.43593966960907,929.791373340413L379.7907428909093,1027.50793363899Z" fill="#7f6d76" stroke="#7f6d76"></path><path d="M347.75991786271334,823.5313672665507L379.7907428909093,1027.50793363899L489.3995607085526,985.711618680507Z" fill="#7a6973" stroke="#7a6973"></path><path d="M347.75991786271334,823.5313672665507L489.3995607085526,985.711618680507L546.6679170168936,880.0368043687195Z" fill="#746672" stroke="#746672"></path><path d="M546.6679170168936,880.0368043687195L489.3995607085526,985.711618680507L662.6892147492617,1017.3265528399497Z" fill="#69616f" stroke="#69616f"></path><path d="M546.6679170168936,880.0368043687195L662.6892147492617,1017.3265528399497L650.794637594372,850.916414251551Z" fill="#635e6d" stroke="#635e6d"></path><path d="M650.794637594372,850.916414251551L662.6892147492617,1017.3265528399497L839.8986719828099,944.8343622777611Z" fill="#57596a" stroke="#57596a"></path><path d="M650.794637594372,850.916414251551L839.8986719828099,944.8343622777611L858.2575104385614,882.2710690833628Z" fill="#4f5669" stroke="#4f5669"></path><path d="M858.2575104385614,882.2710690833628L839.8986719828099,944.8343622777611L921.1271320469677,916.6734733153135Z" fill="#425165" stroke="#425165"></path><path d="M858.2575104385614,882.2710690833628L921.1271320469677,916.6734733153135L973.8374272640795,851.3197677209973Z" fill="#3b4e64" stroke="#3b4e64"></path><path d="M973.8374272640795,851.3197677209973L921.1271320469677,916.6734733153135L1119.0922036394477,877.3198851943016Z" fill="#2e4961" stroke="#2e4961"></path><path d="M1119.0922036394477,877.3198851943016L921.1271320469677,916.6734733153135L1134.650979526341,1023.6695250682533Z" fill="#27455e" stroke="#27455e"></path><path d="M1119.0922036394477,877.3198851943016L1134.650979526341,1023.6695250682533L1310.9789018332958,958.4842069912702Z" fill="#183a59" stroke="#183a59"></path><path d="M1119.0922036394477,877.3198851943016L1310.9789018332958,958.4842069912702L1270.1546812523156,850.7086239103228Z" fill="#143757" stroke="#143757"></path><path d="M1270.1546812523156,850.7086239103228L1310.9789018332958,958.4842069912702L1402.804822800681,860.5691729485989Z" fill="#14324f" stroke="#14324f"></path><path d="M1402.804822800681,860.5691729485989L1310.9789018332958,958.4842069912702L1452.8237178828567,954.5364796835929Z" fill="#142f49" stroke="#142f49"></path><path d="M1402.804822800681,860.5691729485989L1452.8237178828567,954.5364796835929L1603.9415055233985,828.9649996440858Z" fill="#13283e" stroke="#13283e"></path><path d="M1603.9415055233985,828.9649996440858L1452.8237178828567,954.5364796835929L1583.242653524503,984.3624445796013Z" fill="#132336" stroke="#132336"></path><path d="M1603.9415055233985,828.9649996440858L1583.242653524503,984.3624445796013L1699.190100543201,958.2173881586641Z" fill="#131c2b" stroke="#131c2b"></path><path d="M1603.9415055233985,828.9649996440858L1699.190100543201,958.2173881586641L1708.234902760014,853.4917830303311Z" fill="#131826" stroke="#131826"></path><path d="M1708.234902760014,853.4917830303311L1699.190100543201,958.2173881586641L1920.6013522669673,966.556002991274Z" fill="#120f18" stroke="#120f18"></path><path d="M1708.234902760014,853.4917830303311L1920.6013522669673,966.556002991274L1826.9523344468325,775.6693821866065Z" fill="#120c12" stroke="#120c12"></path><path d="M1826.9523344468325,775.6693821866065L1920.6013522669673,966.556002991274L2019.6657900698483,768.8506190478802Z" fill="#120305" stroke="#120305"></path><path d="M2019.6657900698483,768.8506190478802L1920.6013522669673,966.556002991274L2062.1715254802257,1004.279753677547Z" fill="#120000" stroke="#120000"></path><path d="M42.11519993841648,1019.7179316077381L379.7907428909093,1027.50793363899L251.43593966960907,929.791373340413Z" fill="#867379" stroke="#867379"></path><path d="M379.7907428909093,1027.50793363899L1134.650979526341,1023.6695250682533L662.6892147492617,1017.3265528399497Z" fill="#56596a" stroke="#56596a"></path><path d="M379.7907428909093,1027.50793363899L662.6892147492617,1017.3265528399497L489.3995607085526,985.711618680507Z" fill="#6f6470" stroke="#6f6470"></path><path d="M662.6892147492617,1017.3265528399497L1134.650979526341,1023.6695250682533L839.8986719828099,944.8343622777611Z" fill="#415165" stroke="#415165"></path><path d="M839.8986719828099,944.8343622777611L1134.650979526341,1023.6695250682533L921.1271320469677,916.6734733153135Z" fill="#344b62" stroke="#344b62"></path><path d="M1134.650979526341,1023.6695250682533L2062.1715254802257,1004.279753677547L1583.242653524503,984.3624445796013Z" fill="#131f30" stroke="#131f30"></path><path d="M1134.650979526341,1023.6695250682533L1583.242653524503,984.3624445796013L1452.8237178828567,954.5364796835929Z" fill="#142f49" stroke="#142f49"></path><path d="M1134.650979526341,1023.6695250682533L1452.8237178828567,954.5364796835929L1310.9789018332958,958.4842069912702Z" fill="#143451" stroke="#143451"></path><path d="M1583.242653524503,984.3624445796013L2062.1715254802257,1004.279753677547L1920.6013522669673,966.556002991274Z" fill="#12090e" stroke="#12090e"></path><path d="M1583.242653524503,984.3624445796013L1920.6013522669673,966.556002991274L1699.190100543201,958.2173881586641Z" fill="#12131d" stroke="#12131d"></path></g></svg>